<?xml version="1.0" encoding="UTF-8"?>
<!DOCTYPE svg PUBLIC "-//W3C//DTD SVG 1.1//EN" "http://www.w3.org/Graphics/SVG/1.1/DTD/svg11.dtd">
<!-- Creator: CorelDRAW 2019 (64-Bit) -->
<svg xmlns="http://www.w3.org/2000/svg" xml:space="preserve" width="206px" height="199px" version="1.1" style="shape-rendering:geometricPrecision; text-rendering:geometricPrecision; image-rendering:optimizeQuality; fill-rule:evenodd; clip-rule:evenodd"
viewBox="0 0 44.4 42.82"
 xmlns:xlink="http://www.w3.org/1999/xlink"
 xmlns:xodm="http://www.corel.com/coreldraw/odm/2003">
 <defs>
  <style type="text/css">
   <![CDATA[
    .fil0 {fill:#2B2A29}
   ]]>
  </style>
 </defs>
 <g id="Layer_x0020_1">
  <metadata id="CorelCorpID_0Corel-Layer"/>
  <path id="Generál" class="fil0" d="M15.67 38.35c1.48,-1.15 2.55,-0.38 4.4,-0.37 2.67,0.01 2.35,-0.68 3.74,-1.77 0.93,0.42 1.4,0.95 2.63,1.01 1.34,0.06 2.24,-0.1 3.69,0.12 0.19,5.96 -13.72,4.85 -14.46,1.01zm-4.86 -0.88c0.9,-0.88 1.65,-0.15 3.02,-2.05 1.16,-1.61 2.14,-4.59 5.79,-4.64 2.09,-0.02 2.76,0.6 3.75,1.66 0.7,-0.16 4.7,-3.17 7.5,-1.15 1.04,0.75 1.34,1.6 2.14,2.71 1.31,1.84 1.91,1.44 2.65,1.68 0.62,0.2 0.11,-0.11 0.51,0.25 -1.64,2.88 -3.73,0.98 -5.57,0.05 -1.46,-0.73 -2.75,-0.01 -4.14,-0.24 -1.42,-0.23 -1.54,-1.3 -2.43,-1.94 -1.34,0.28 -1.28,1.41 -2.41,2.15 -1.07,0.7 -2.66,0.29 -4,0.28 -2.19,-0.02 -4.66,3.56 -6.81,1.24zm21.96 -5.59c-1.08,-0.84 -2.66,-3.45 -6.87,-2.01 -1.08,0.37 -1.28,0.88 -2.31,1.03 -0.06,-0.01 -2.38,-2.33 -6.32,-0.4 -1.1,0.54 -1.55,0.81 -2.27,1.68 -0.58,0.72 -1.04,1.87 -1.76,2.34 -0.77,-1.39 -1.55,-10.15 -1.36,-12.25 2.49,-1.83 7.64,-2.57 11.26,-2.57 4.64,0 7.32,1.33 10.78,3.03 0.05,2.65 -0.5,6.78 -1.15,9.15zm-15.83 -25.08c2.33,0.29 8.35,4.22 10.06,5.67 1.69,1.45 6.3,5.91 6.66,8.82 -6.59,-1.74 -4.54,-2.91 -8.73,-6.08 -2.09,-1.58 -4.6,-3.24 -6.98,-4.24 -1.04,-0.43 -2.01,-0.59 -2.91,-1.03 0.48,-1.13 1.37,-2.22 1.9,-3.14zm-7.64 28.54c-0.27,1.37 0.62,2.42 1.3,3 1.08,0.95 1.78,0.86 3.3,0.69 0.8,0.98 0.86,2.04 3.53,3.04 2.51,0.95 8.58,1.14 11.56,-0.31 2.03,-0.99 2.47,-2.33 3.25,-3.34 1.58,-0.11 2.99,-0.35 3.91,-1.17 0.61,-0.55 1.93,-2.46 1.62,-3.39 -1.44,-0.1 -1.48,1.94 -3.54,0.27 -0.19,-0.33 0.47,-5.27 0.66,-5.82 0.58,-1.68 2.96,-0.34 7.07,-3.96 0.82,-0.72 1.51,-1.06 2.05,-2.36 0.53,-1.28 0.65,-2.24 -0.46,-2.93 -0.45,-0.28 -5.94,-1.55 -8.39,-4.83 -0.76,-1.03 -1.22,-1.34 -1.98,-2.44 -1.78,-2.59 -5.54,-8.01 -7.63,-9.98 -2.08,-1.97 -3.57,-2.63 -5.91,-0.45 -2.89,2.71 -4.52,7.15 -7.27,10.35 -0.56,0.65 -1.48,1.56 -2.1,2.31 -0.73,0.88 -1.25,1.64 -2.05,2.35 -3.77,3.33 -7.74,1.62 -8.2,5.05 -0.37,2.78 4.95,5.11 7.42,5.77 1.51,0.41 2.65,-0.08 3.06,1.37l1.55 7.19c-0.06,0.61 -0.73,0.81 -1.36,0.58 -1.16,-0.43 -0.13,-0.91 -1.39,-0.99z"/>
 </g>
</svg>
