<?xml version="1.0" encoding="UTF-8"?>
<!DOCTYPE svg PUBLIC "-//W3C//DTD SVG 1.1//EN" "http://www.w3.org/Graphics/SVG/1.1/DTD/svg11.dtd">
<!-- Creator: CorelDRAW 2019 (64-Bit) -->
<svg xmlns="http://www.w3.org/2000/svg" xml:space="preserve" width="12.7683mm" height="17.5797mm" version="1.1" style="shape-rendering:geometricPrecision; text-rendering:geometricPrecision; image-rendering:optimizeQuality; fill-rule:evenodd; clip-rule:evenodd"
viewBox="0 0 160.51 221"
 xmlns:xlink="http://www.w3.org/1999/xlink"
 xmlns:xodm="http://www.corel.com/coreldraw/odm/2003">
 <defs>
  <style type="text/css">
   <![CDATA[
    .fil0 {fill:#2B2A29}
   ]]>
  </style>
 </defs>
 <g id="Layer_x0020_1">
  <metadata id="CorelCorpID_0Corel-Layer"/>
  <path class="fil0" d="M96.56 104.12l9.31 0.09 1.51 17.43c-3.67,0.81 -6.79,2.46 -11.48,1.8l0.65 -19.32zm18.98 13.02c-2.95,-2.68 -1.61,-8.5 -1.55,-12.48 2.74,0.83 2.2,1.56 2.94,5.5 0.98,5.25 1.48,4.95 -1.39,6.98zm-92.63 -8.6c18.06,8.92 27.19,19.09 56.64,20.8 29.89,1.74 44,-15.24 57.5,-20.6 0.7,19.7 -4.27,54.19 -12,69 -2.42,4.63 -2.07,15.05 -14.26,27.19 -8.16,8.12 -16.56,9.98 -31.2,10.16 -28.45,0.33 -41.32,-11.92 -47.75,-35.05 -2.5,-8.98 -11.04,-66.01 -8.93,-71.5zm115.27 -28.91c-3.29,-0.66 -5.21,-1.84 -6.74,-3.65l6.74 3.65zm-14.93 -17.14c15.84,12.19 31.57,-3.02 31.42,10.99 -17.83,7.65 -54.87,-20.27 -52.92,-31.13 4.06,0.91 16.6,16.36 21.5,20.14zm-11.53 2.83c24.54,29.11 36.42,15.58 38.85,28.16 -9.42,1.86 -14.61,-1.78 -20.62,-6.09 -9.46,-6.79 -39.48,-36 -35.11,-45.1 2.45,3.02 1.77,5.28 4.91,8.84 2.38,2.7 4.19,3.64 6.46,6.62 2.31,3.03 2.82,4.37 5.52,7.57zm-20.26 -28.9c4.3,-5.36 10.15,-4.1 14.79,-0.58 -5,-1.36 -5,-0.99 -8.14,1.84l-6.65 -1.26zm-85.16 -18.76c25,-7.08 43.33,-10.77 72.18,-11.65 12.35,-0.38 65.42,4.44 74.15,8.62 0.51,6.79 -3.18,18.85 -4.63,25.87 -0.81,3.92 -1.8,8.45 -2.61,12.61 -1.26,6.45 -0.9,6.42 -4.45,9.79 -1.95,-1.44 -11.95,-1.42 -18.91,-7.9 -10.17,-9.47 -5.3,-6.23 -9.14,-18.17 -5.61,-17.5 -30.07,-11.74 -29.55,4.98 0.12,4 2.19,7.1 4.79,8.94 5.62,3.98 3.34,1.3 6.81,7.4 4.94,8.69 17.83,22.42 26.16,29.35 3.57,2.97 13.62,6.58 13.46,12.6 -5.25,1.69 -103.03,-0.03 -110.69,-1.55 -3.32,-13.23 -5.89,-26.49 -8.99,-39.88 -2.62,-11.35 -8.24,-29.84 -8.58,-41.01zm143.32 43.63c2.52,-11.66 11.14,-42.25 10.88,-52.35 -10.75,-4.73 -67.95,-9.27 -84.19,-8.91 -19,0.42 -61.92,3.5 -76.31,15.68 0.23,11.41 7.58,33.51 9.65,45.97 1.25,7.52 3.13,14.82 4.81,22.5 4.16,19.03 3.63,13.41 -0.48,20.7 -7.9,14.02 6.56,34.73 -2.94,48.23 -7.11,10.11 -8.91,19.51 4.42,25.86 3.42,1.63 6.56,2.1 11.08,2.27 5.35,13.77 7.71,22.56 17.58,30.09 9.49,7.24 22.91,9.75 37.64,9.67 47,-0.27 44.48,-37.89 50.02,-44 7.48,-5.13 13.18,-1.69 16.88,-10.44 4.22,-9.98 0,-13.45 -2.37,-21.42 -2.68,-9.02 -0.35,-15.92 -0.55,-24.76 -0.43,-19.91 -5.42,-12.21 -4.69,-20.33 8.93,-1.13 15.61,-1.4 13.32,-12.41 -3.28,-3.83 -5.29,-3.97 -8.76,-6.54 5.3,-2.84 12.21,-0.22 13.34,-7.77 1.44,-9.61 -3.98,-9.47 -9.33,-12.04z"/>
 </g>
</svg>
