<?xml version="1.0" encoding="UTF-8"?>
<!DOCTYPE svg PUBLIC "-//W3C//DTD SVG 1.1//EN" "http://www.w3.org/Graphics/SVG/1.1/DTD/svg11.dtd">
<!-- Creator: CorelDRAW 2019 (64-Bit) -->
<svg xmlns="http://www.w3.org/2000/svg" xml:space="preserve" width="12.3003mm" height="19.249mm" version="1.1" style="shape-rendering:geometricPrecision; text-rendering:geometricPrecision; image-rendering:optimizeQuality; fill-rule:evenodd; clip-rule:evenodd"
viewBox="0 0 2671.21 4180.23"
 xmlns:xlink="http://www.w3.org/1999/xlink"
 xmlns:xodm="http://www.corel.com/coreldraw/odm/2003">
 <defs>
  <style type="text/css">
   <![CDATA[
    .fil0 {fill:#6C6C6C}
   ]]>
  </style>
 </defs>
 <g id="Layer_x0020_1">
  <metadata id="CorelCorpID_0Corel-Layer"/>
  <path class="fil0" d="M280.36 2064.14c72.95,172.08 23.82,807.01 139.44,1186.58 23.48,77.01 66.26,140.59 78.64,184.53 28.3,100.42 -64.19,343.14 101.96,410.6 2.52,-4.43 5.04,-16.92 5.47,-14.25l-10.64 -160.79c-11.62,-279.34 388.62,-538.59 547.69,-524.04 158.51,14.51 153.75,128.3 229.33,198.42 83.7,-30.92 169.11,-382.58 535.99,-59.13 329.66,290.63 118.59,457.7 179.4,587.11 139.07,-70.41 74.71,-258.71 78.57,-389.86 1.93,-65.93 37.5,-110.69 63.5,-176.71 51.75,-131.49 106.37,-513.08 121.37,-652.11 15.72,-145.46 20.87,-339.56 47.93,-479.07 134.32,265.92 192.15,1461.01 -141.53,1816.21 -287.35,305.88 -561.81,-1.5 -587.04,-15.42 -49.99,-27.54 -235.99,54.44 -355,54.92 -204.9,0.83 -130.28,-91.45 -333.81,-16.11 -390.03,144.37 -647.31,-41.89 -786.23,-429.49 -144.13,-402.13 -54.62,-1352.82 84.96,-1521.38zm1811.41 1232.72c-99.81,-49.84 -133.71,-183.83 -309.07,-242.14 -213.65,-71.04 -290.35,25.47 -410.44,88.39 -332.31,-321.43 -722.25,133.25 -792.24,168.72 -97.55,-174.38 -183.77,-1055.1 -158.57,-1308.43 88.04,19.39 270.02,142.44 392.57,192.54 166.94,68.28 307.4,85.56 520.63,85.13 256.56,-0.5 298.1,-33.88 505.78,-101.96 72.01,-23.61 148,-46.52 218.97,-80.83 112.45,-54.36 146.78,-110.08 176.62,-80.55 118.62,200.9 -75.55,1083.68 -144.24,1279.13zm-305.34 -1174.35c-63.74,-8.77 -50.9,7.99 -61.2,-68.82 -13.9,-103.63 12.12,-105.8 23.54,-120.05 72.64,43.19 70.08,141.24 37.66,188.87zm-216.12 71.62c-210.5,37.94 -451.58,40.87 -650,-27.36 -118.64,-40.81 -426.73,-177.06 -475.62,-268.68 125.41,-9.73 440.7,7.23 570.06,21.74 92.66,10.4 188.28,10.19 282.21,11.53l224.16 6.75c48.82,9.38 27.8,5.67 54.92,15.96l-5.73 240.06zm-325.16 -1628.86c45.78,-35.2 115.25,-93.77 210.35,-64.82 56.33,17.13 118.99,98.94 94.36,185.7 -43.65,153.73 -334.63,117.99 -304.71,-120.87zm433.83 -427.9l-137.29 269.2c-150.67,-21.15 -185.79,3.26 -327.25,11.88l-105.11 -286.94c129.15,-73.95 411.38,-32.9 569.65,5.86zm823.6 1968.87c-25.6,-102.57 -92.45,-170.52 -93.53,-260.1l151.69 -902.43c27.58,-131.41 127.87,-476.77 107.82,-585.89 -176.17,-81.83 -680.36,-165.78 -898.61,-191.41l10.45 -102.42c-185.48,-66.04 -626.22,-107.22 -784.69,11.42 5.65,87.43 40.2,67.99 33.99,163.35 -245.83,28.75 -814.29,109.8 -964.04,223.36l181.38 1229.05c29.56,177.32 32.68,143.11 -43.95,282.73 -246.9,449.77 -312.96,1539.86 55.16,2001.82 245.29,307.83 753.55,89.19 831.75,87.13 103.41,-2.69 150.45,45.89 316.76,21.28 127.89,-18.92 187.09,-61.46 283.81,2.08 310.24,203.83 650.74,37.03 755.91,-130.34 268.57,-427.36 182.35,-1343.91 56.12,-1849.63z"/>
 </g>
</svg>
