<?xml version="1.0" encoding="UTF-8"?>
<!DOCTYPE svg PUBLIC "-//W3C//DTD SVG 1.1//EN" "http://www.w3.org/Graphics/SVG/1.1/DTD/svg11.dtd">
<!-- Creator: CorelDRAW 2019 (64-Bit) -->
<svg xmlns="http://www.w3.org/2000/svg" xml:space="preserve" width="12.3003mm" height="19.249mm" version="1.1" style="shape-rendering:geometricPrecision; text-rendering:geometricPrecision; image-rendering:optimizeQuality; fill-rule:evenodd; clip-rule:evenodd"
viewBox="0 0 367.76 575.51"
 xmlns:xlink="http://www.w3.org/1999/xlink"
 xmlns:xodm="http://www.corel.com/coreldraw/odm/2003">
 <defs>
  <style type="text/css">
   <![CDATA[
    .fil0 {fill:#2B2A29}
   ]]>
  </style>
 </defs>
 <g id="Layer_x0020_1">
  <metadata id="CorelCorpID_0Corel-Layer"/>
  <path id="Kapitán" class="fil0" d="M38.6 284.18c10.04,23.69 3.28,111.11 19.2,163.36 3.23,10.6 9.12,19.36 10.83,25.4 3.9,13.82 -8.84,47.24 14.04,56.53 0.35,-0.61 0.69,-2.33 0.75,-1.96l-1.47 -22.14c-1.6,-38.46 53.5,-74.15 75.4,-72.15 21.82,2 21.17,17.66 31.57,27.32 11.52,-4.26 23.28,-52.67 73.79,-8.14 45.39,40.01 16.33,63.01 24.7,80.83 19.15,-9.69 10.29,-35.62 10.82,-53.67 0.27,-9.08 5.16,-15.24 8.74,-24.33 7.12,-18.1 14.64,-70.64 16.71,-89.78 2.16,-20.03 2.87,-46.75 6.6,-65.96 18.49,36.61 26.45,201.14 -19.48,250.05 -39.56,42.11 -77.35,-0.21 -80.82,-2.12 -6.88,-3.79 -32.49,7.5 -48.87,7.56 -28.21,0.11 -17.94,-12.59 -45.96,-2.22 -53.7,19.88 -89.12,-5.77 -108.24,-59.13 -19.84,-55.36 -7.52,-186.25 11.7,-209.46zm249.39 169.71c-13.74,-6.86 -18.41,-25.31 -42.55,-33.34 -29.41,-9.78 -39.97,3.51 -56.51,12.17 -45.75,-44.25 -99.44,18.35 -109.07,23.23 -13.43,-24.01 -25.3,-145.26 -21.83,-180.14 12.12,2.67 37.18,19.61 54.05,26.51 22.98,9.4 42.32,11.78 71.68,11.72 35.32,-0.07 41.04,-4.66 69.63,-14.04 9.91,-3.25 20.38,-6.4 30.15,-11.13 15.48,-7.48 20.21,-15.16 24.32,-11.09 16.33,27.66 -10.4,149.2 -19.86,176.1zm56.56 -163.92c-3.53,-14.12 -12.73,-23.48 -12.88,-35.81l20.88 -124.24c3.8,-18.09 17.6,-65.64 14.84,-80.66 -24.25,-11.27 -93.67,-22.82 -123.72,-26.35l1.44 -14.1c-25.54,-9.09 -86.21,-14.76 -108.03,1.57 0.78,12.04 5.53,9.36 4.68,22.49 -33.84,3.96 -112.11,15.12 -132.72,30.75l24.97 169.21c4.07,24.41 4.5,19.7 -6.05,38.92 -33.99,61.92 -43.09,212 7.59,275.6 33.77,42.38 103.74,12.28 114.51,12 14.24,-0.37 20.71,6.32 43.61,2.93 17.61,-2.6 25.76,-8.46 39.07,0.29 42.71,28.06 89.59,5.1 104.07,-17.94 36.98,-58.84 25.11,-185.02 7.73,-254.65z"/>
 </g>
</svg>
