<?xml version="1.0" encoding="UTF-8"?>
<!DOCTYPE svg PUBLIC "-//W3C//DTD SVG 1.1//EN" "http://www.w3.org/Graphics/SVG/1.1/DTD/svg11.dtd">
<!-- Creator: CorelDRAW 2019 (64-Bit) -->
<svg xmlns="http://www.w3.org/2000/svg" xml:space="preserve" width="5.8781mm" height="2.5304mm" version="1.1" style="shape-rendering:geometricPrecision; text-rendering:geometricPrecision; image-rendering:optimizeQuality; fill-rule:evenodd; clip-rule:evenodd"
viewBox="0 0 50.78 21.86"
 xmlns:xlink="http://www.w3.org/1999/xlink"
 xmlns:xodm="http://www.corel.com/coreldraw/odm/2003">
 <defs>
  <style type="text/css">
   <![CDATA[
    .fil0 {fill:#6C6C6C}
   ]]>
  </style>
 </defs>
 <g id="Layer_x0020_1">
  <metadata id="CorelCorpID_0Corel-Layer"/>
  <path class="fil0" d="M24.28 0.59c-9.21,4.37 -12.31,0.68 -18.95,5.9 -9.83,7.72 -3.62,15.95 -0.77,15.34 3.57,-0.76 -4.59,-11.51 8.44,-12.9 3.14,-0.33 11.23,-1.12 13.13,-5.73 0,-0.01 2.02,-4.44 -1.85,-2.61zm21 20.75c5.9,0.15 7.88,-11.56 1.81,-15.19 -3.69,-2.2 -6.42,-0.69 -10.73,-1.89 -4.11,-1.14 -4.46,-4.35 -8.37,-4.27 -0.2,5.52 4.5,9.94 11.16,9.71 12.77,-0.44 6.31,9.63 6.13,11.64z"/>
 </g>
</svg>
