<?xml version="1.0" encoding="UTF-8"?>
<!DOCTYPE svg PUBLIC "-//W3C//DTD SVG 1.1//EN" "http://www.w3.org/Graphics/SVG/1.1/DTD/svg11.dtd">
<!-- Creator: CorelDRAW 2019 (64-Bit) -->
<svg xmlns="http://www.w3.org/2000/svg" xml:space="preserve" width="178px" height="201px" version="1.1" style="shape-rendering:geometricPrecision; text-rendering:geometricPrecision; image-rendering:optimizeQuality; fill-rule:evenodd; clip-rule:evenodd"
viewBox="0 0 17.58 19.79"
 xmlns:xlink="http://www.w3.org/1999/xlink"
 xmlns:xodm="http://www.corel.com/coreldraw/odm/2003">
 <defs>
  <style type="text/css">
   <![CDATA[
    .fil0 {fill:#2B2A29}
   ]]>
  </style>
 </defs>
 <g id="Layer_x0020_1">
  <metadata id="CorelCorpID_0Corel-Layer"/>
  <path id="Kaprál" class="fil0" d="M4.92 16.61c0.87,-0.06 1.42,0.15 2.19,0.13 0.95,-0.03 0.94,-0.29 1.62,-0.6 0.7,0.49 0.61,0.72 1.62,0.68 0.76,-0.02 1.3,-0.3 2.09,-0.13 0,0.57 -0.58,1.68 -1.07,1.99 -1.95,1.2 -6.18,0.78 -6.45,-2.07zm7.92 -1.05c-1.57,-0.37 -1.92,-1.56 -4.13,-0.61 -0.73,-0.42 -1.26,-0.63 -2.13,-0.36 -0.53,0.17 -1.62,0.8 -2.06,0.81 -0.46,-1.86 -0.48,-3.61 -0.53,-5.52 2.5,0.18 2.95,2.24 7.08,1.01 1.37,-0.4 1.27,-0.68 2.2,-0.9 -0.05,2.52 -0.34,3.57 -0.43,5.57zm-2.59 -4.89c-0.14,-0.33 -0.23,-0.89 -0.1,-1.24l0.45 0.01 0.13 1.22 -0.48 0.01zm0.91 -1.21c0.17,0.26 0.31,0.6 0.11,0.89 -0.13,-0.31 -0.23,-0.62 -0.11,-0.89zm1.14 -0.22c-1.15,-0.12 -8.47,0.02 -8.72,-0.29 0.38,-0.3 4.2,-0.07 4.95,-0.04 0.88,0.02 1.75,0 2.63,0.02 0.67,0.02 2.12,-0.1 2.35,0.22 -0.3,0.18 -0.78,0.13 -1.21,0.09zm-10.6 -7.99l0.6 3.52c0.21,1.14 0.4,2.35 0.64,3.53 0.44,2.05 0.26,2.04 0.48,3.64l0.37 3.79c-0.62,0.52 -1.67,0.45 -2.1,-0.36 -0.39,-0.75 -0.74,-1.46 -1.69,-1.47 0.06,0.68 0.37,0.46 0.76,1.09 0.29,0.46 0.33,0.87 0.64,1.29 0.92,1.25 1.5,0.72 2.84,0.74 0.63,2.29 4.41,3.76 7.35,1.98 0.9,-0.55 0.98,-1.53 1.5,-2.14 1.18,0 2.16,0.42 2.79,-0.97 0.26,-0.57 0.17,-0.83 0.65,-1.37 0.42,-0.5 1.02,-0.35 1.05,-0.85 -2.21,-0.64 -1.83,3.32 -4.27,2.17 0.17,-1.28 0.45,-2.48 0.58,-3.85 0.46,-4.81 0.26,-2.95 1.4,-7.52 0.18,-0.7 0.93,-3.07 0.92,-3.52 -1.68,-0.8 -5.44,-0.98 -7.38,-0.95 -2.2,0.04 -5.16,0.42 -7.13,1.25z"/>
 </g>
</svg>
