<?xml version="1.0" encoding="UTF-8"?>
<!DOCTYPE svg PUBLIC "-//W3C//DTD SVG 1.1//EN" "http://www.w3.org/Graphics/SVG/1.1/DTD/svg11.dtd">
<!-- Creator: CorelDRAW 2019 (64-Bit) -->
<svg xmlns="http://www.w3.org/2000/svg" xml:space="preserve" width="230px" height="221px" version="1.1" style="shape-rendering:geometricPrecision; text-rendering:geometricPrecision; image-rendering:optimizeQuality; fill-rule:evenodd; clip-rule:evenodd"
viewBox="0 0 53.93 51.78"
 xmlns:xlink="http://www.w3.org/1999/xlink"
 xmlns:xodm="http://www.corel.com/coreldraw/odm/2003">
 <defs>
  <style type="text/css">
   <![CDATA[
    .fil0 {fill:#2B2A29}
   ]]>
  </style>
 </defs>
 <g id="Layer_x0020_1">
  <metadata id="CorelCorpID_0Corel-Layer"/>
  <path id="Maršál" class="fil0" d="M47.92 31.61c0.85,-0.34 3.02,-2.6 4.12,-3.46 0.54,-0.41 0.83,-0.53 1.29,-1 -0.3,-0.72 -1.33,-1.62 -2.07,-2.37l-2.1 -2.37c-1.55,0.43 -2.9,1.53 -4.06,2.41 -3.89,2.96 -1.39,1 -2.9,3.29 0.68,0.68 2.08,1.22 2.97,1.78 0.95,0.6 1.77,1.27 2.75,1.72zm-29.66 13.09c1.4,2.09 4.62,3.14 7.34,3.38 6.55,0.59 10.83,-2.95 12.27,-8.86 0.44,-1.79 1.59,-7.28 1.58,-8.79l-1.79 0.35c-0.6,5.49 -1.4,10.65 -4.83,13.21 -0.9,0.68 -1.6,1.42 -2.78,1.76 -2.56,0.73 -5.5,0.54 -7.94,-0.45 -1.2,-0.49 -1.62,-1.16 -2.81,-1.58 -0.37,0.41 -0.7,0.64 -1.04,0.98zm-13.16 3.94c0.94,-0.21 1.3,0.23 1.2,1.16 -1.06,0.08 -1.32,-0.09 -1.2,-1.16zm4.42 -1.19c-0.8,-0.45 -0.95,-0.58 -1.08,-1.71 2.62,-1.33 5.52,-4.32 8.28,-5.6 0.74,0.36 0.95,0.55 1.08,1.56l-4.01 2.92c-1.13,0.91 -2.8,2.33 -4.27,2.83zm9.92 -7.68c-0.22,-0.34 -0.44,-0.54 -0.19,-1.2 0.22,-0.57 0.41,-0.61 1.15,-0.69 0.22,0.87 0.25,1.82 -0.96,1.89zm3.28 -1.16c-1.69,-0.21 -1.07,-1.94 0.24,-2.17 0.13,0.23 0.17,0.13 0.23,0.56 0.03,0.29 0,0.34 -0.06,0.59 -0.09,0.44 -0.28,0.79 -0.41,1.02zm1.95 -2.14c-0.02,-1.15 0.07,-1.74 1.21,-1.88 -0.08,1.26 -0.16,1.74 -1.21,1.88zm3.55 -3.4c0.95,-0.79 1.23,-2.04 3.2,-1.86 0.24,0.44 0.39,0.72 0.43,1.46 -0.61,0.72 -2.32,1.99 -3.43,2.17l-0.2 -1.77zm6.54 -0.35c-1.02,-0.26 -0.7,-0.3 -1.8,-2.12 -0.55,-0.9 -1.12,-1.64 -1.45,-2.53 1.97,0.12 3.79,2.61 3.25,4.65zm2.33 -5.33c-0.2,0.71 -0.54,1.17 -1.62,1 -0.9,-0.15 -1.26,-0.58 -1.26,-1.56 0.71,-0.75 2.19,-0.07 2.88,0.56zm1.21 -2.34c0.3,0.54 0.53,1.04 0.54,1.88 -1.46,-0.06 -2.08,-0.17 -2,-1.79l1.46 -0.09zm1.08 -0.39c-0.08,-0.31 -0.53,0.38 0.02,-0.71 0.02,-0.05 0.08,-0.1 0.11,-0.14 0.41,-0.58 4.23,-3.18 4.84,-3.59 1.03,-0.69 1.9,-1.31 2.82,-1.98 0.98,-0.7 2.14,-2.1 2.12,0.27 0,0 -7.91,6.87 -9.91,6.15zm12.82 -7.63c-1.52,0.85 -2.21,-0.47 -1.75,-1.24 0.42,-0.71 2.04,-0.48 1.75,1.24zm-44.87 2.66c0.23,-0.97 1.24,-1.79 2.28,-2.3 0.66,-0.32 2.58,-1.07 3.23,-1.17 -1.15,0.93 -3.68,2.22 -4.92,3.08l-0.59 0.39zm17.37 -8.62c-0.4,0.6 -1.95,1.55 -2.7,0.73 -0.41,-0.44 -0.45,-2.29 -0.42,-3.1 0.24,0.03 2.85,1.12 3.12,2.37zm-6.81 -0.96c0.92,-1.03 1.22,-1.18 2.54,-1.6l-0.29 3.75c-1.26,-0.26 -2.14,-0.87 -2.25,-2.15zm5.06 -1.68c0.27,-1.05 -0.54,-0.01 1.51,-1.63 0.67,-0.54 0.7,-0.89 1.62,-1.07 0.76,0.66 0.86,1.31 0.76,2.54 -2.15,1.2 -1.86,0.37 -3.89,0.16zm-6.6 -0.34c-0.16,-1.46 -0.19,-1.53 0.29,-2.56 1.58,-0.04 3,0.86 3.49,1.98l-3.78 0.58zm5.98 -1.41c0.14,-0.76 0.41,-4.57 1.81,-3.04 0.9,0.99 -0.77,2.87 -1.81,3.04zm-1.02 -3.05c0.28,0.99 0.39,2.48 -0.27,3.27 -0.4,-0.24 -2.27,-2.52 -2.43,-2.78 0.86,-0.94 1.54,-0.87 2.7,-0.49zm22.32 14.88c-0.34,-0.67 -0.73,-0.9 -1.4,-1.37 0.99,0.08 2.51,0.87 3.18,1.43 -1,1.13 -4.98,3.48 -6.16,4.48 -2.11,1.78 -3.46,-0.35 -3.88,2.58 -2.67,0.25 -1.67,0.82 -2.79,1.36 -0.19,0.09 -0.67,0.17 -0.91,0.25 -1.76,0.61 -1.11,1.98 -1.97,3.05l-2.65 2.39c-1.09,1.13 -1.54,-0.09 -2.72,2.34 -1.93,0.29 -1.89,0.01 -2.81,1.55 -3.41,0.27 -2.04,1.59 -3.85,2.58 -0.71,0.39 -1.45,0.55 -2.17,0.95 -1.34,0.74 -6.02,4.47 -7.2,5.28 -1.05,0.72 -0.87,0.53 -1.33,1.76 -2.53,0.08 -3.95,0.32 -3.4,3.29 1.14,1.58 3.33,2.06 4.41,-0.1 0.67,-1.36 0.6,-0.88 2.13,-1.29 0.74,-0.19 1.45,-0.73 2.12,-1.19 1.3,-0.91 2.6,-1.89 3.88,-2.84 0.72,-0.53 1.26,-0.87 1.99,-1.36 1.22,-0.81 0.82,-0.85 1.54,-1.81 0.41,-0.42 0.6,-0.06 1.64,-1.29l1.73 0.03c0.45,-0.64 0.59,-0.8 0.86,-1.73l1.77 0.02c0.74,-0.75 0.86,-1.12 1.4,-2.34 2.63,-0.27 0.46,1.24 3.7,-1.13 1.68,-1.23 1.61,-1.09 4.15,-1.17 0.95,-0.85 1.82,-1.86 1.77,-3.75 2.28,-1.36 1.17,-0.18 2.4,-0.92 0.67,-0.41 0.27,-0.66 1.32,-1.34 2.37,-1.54 -1.23,-0.08 3.58,-3.59 1.28,-0.93 2.51,-1.59 3.88,-2.6 2.77,-2.03 2.36,-1.14 3.29,-3.17 1.63,-0.07 2.78,-0.28 2.8,-2.03 0.02,-1.31 -1.08,-2.22 -2.19,-2.3 -1.75,-0.12 -1.45,1.21 -2.63,1.82 -1.84,0.96 -1.94,1.53 -2.85,1.53 -0.79,-1.18 -1.54,-9.53 -7.68,-14.51 -2.9,-2.35 -3.23,-2.65 -8.01,-3.26 -5.35,-0.68 -13.34,1.86 -16.33,5.84 -3.22,4.3 -4.33,8.97 -5.78,10.78l-5.28 5.76c-1.56,1.67 -2.28,1.61 -3.18,2.29 0.15,1.21 3.89,4.79 4,4.81 2.3,-0.37 6.33,-4.04 9.35,-4.18 0.56,4.81 0.78,9.22 1.6,13.84 2.5,0 0.87,-2.92 0.77,-5.86 -0.33,-9.18 -1.86,-9.41 4.32,-10.19 1.65,-0.21 3.32,-0.19 5.07,-0.05 4.91,0.4 6.12,1.21 9.13,1.63 0.69,-0.69 0.69,-1.24 1.34,-1.58 0.75,-0.4 1.63,-0.2 2.5,-0.24 1.75,-1.34 4.4,-3.11 5.55,-4.45z"/>
 </g>
</svg>
