<?xml version="1.0" encoding="UTF-8"?>
<!DOCTYPE svg PUBLIC "-//W3C//DTD SVG 1.1//EN" "http://www.w3.org/Graphics/SVG/1.1/DTD/svg11.dtd">
<!-- Creator: CorelDRAW 2019 (64-Bit) -->
<svg xmlns="http://www.w3.org/2000/svg" xml:space="preserve" width="208px" height="192px" version="1.1" style="shape-rendering:geometricPrecision; text-rendering:geometricPrecision; image-rendering:optimizeQuality; fill-rule:evenodd; clip-rule:evenodd"
viewBox="0 0 23.6 21.77"
 xmlns:xlink="http://www.w3.org/1999/xlink"
 xmlns:xodm="http://www.corel.com/coreldraw/odm/2003">
 <defs>
  <style type="text/css">
   <![CDATA[
    .fil0 {fill:#2B2A29}
   ]]>
  </style>
 </defs>
 <g id="Layer_x0020_1">
  <metadata id="CorelCorpID_0Corel-Layer"/>
  <path id="Mina" class="fil0" d="M12.36 10.16c-0.34,-0.49 -0.96,-0.95 -0.95,-1.5 0.01,-0.23 0.05,-0.17 0.1,-0.28 0.06,-0.02 -0.13,-0.16 0.36,-0.08 0.22,0.04 2.82,1.68 1.69,3.88l-0.45 0.01c-0.44,-0.68 -0.24,-1.29 -0.75,-2.03zm-3.5 -3.58c0.52,-0.04 1.54,-0.44 1.98,-0.14 -0.09,0.47 0.01,0.28 -0.98,0.43 -0.75,0.1 -2.26,0.05 -2.79,-0.37 -0.26,-0.22 -0.11,0.05 -0.23,-0.47 0.63,0.13 1.21,0.61 2.02,0.55zm0.24 -1.28c-0.11,-0.1 -0.73,-0.53 0.12,-0.9 0.09,0.15 0.09,0.04 0.14,0.3 0.12,0.71 -0.26,0.6 -0.26,0.6zm8.85 -0.8c-0.19,-0.09 -0.37,0.23 -0.24,-0.46 0.08,-0.42 0.14,-0.31 0.35,-0.44 0.49,0.84 -0.11,0.9 -0.11,0.9zm-0.68 -0.14c-0.13,-0.17 -0.26,0.07 -0.06,-0.88 0.04,0.05 0.51,-0.13 0.06,0.88zm-7.81 -0.85l-0.22 -0.41c0.52,0 0.73,0.11 1.02,0.43 -0.16,0.59 -0.46,0.48 -1.13,0.41 0.13,-0.26 0.11,-0.06 0.33,-0.43zm6.46 -0.62c0.26,0.1 0.46,0.37 0.28,0.71 -0.2,-0.19 -0.26,-0.34 -0.28,-0.71zm-0.65 0.27c-0.15,-0.38 -0.11,-0.91 0.06,-1.2 0.15,0.25 0.65,1.11 -0.06,1.2zm-0.7 -1.35c0.06,-0.36 0.01,-0.1 0.15,-0.31 0.17,0.26 0.17,0.18 0.18,0.63 0,0.23 -0.02,0.4 -0.05,0.63 -0.32,-0.13 -0.35,-0.57 -0.28,-0.95zm-0.35 0.51c-0.55,-0.04 -0.43,-0.51 -0.41,-1.08 0.31,0.13 0.58,0.66 0.41,1.08zm-4.17 -0.29c-0.28,0.01 -0.64,-0.07 -0.87,-0.3 0.14,-0.11 0.47,-0.16 0.74,-0.12 0.41,0.06 0.43,0.22 0.5,0.29 -0.19,0.12 0.19,0.11 -0.37,0.13zm-0.1 -0.83c0,0 -0.07,-0.38 0.57,-0.02 0.2,0.11 0.2,0.16 0.26,0.34l-0.83 -0.32zm3.49 0.61c-0.41,-0.19 -0.16,0.17 -0.37,-0.4 -0.07,-0.2 -0.08,-0.31 -0.13,-0.47 0.52,0.14 0.5,0.31 0.5,0.87zm-2.76 -0.96c0.3,-0.14 0.63,0.19 0.73,0.47 -0.37,-0.08 -0.49,-0.25 -0.73,-0.47zm1.41 0.55c-0.39,-0.07 -0.59,-0.45 -0.67,-0.73 0.46,-0.02 0.63,0.27 0.67,0.73zm-3.81 1.06c-0.79,0.06 -0.92,-0.09 -1.38,0.37 -0.14,0.89 0.14,0.97 0.69,1.26l-0.04 1.17c-1.77,0.57 -3.46,0.63 -5.25,2.53 -0.9,0.95 -1.85,2.4 -2.13,3.81 -0.97,4.94 2.23,9.65 7.1,10.13 1.79,0.18 3.94,-0.27 5.37,-1.27l1.09 -0.88c0.2,-0.21 0.32,-0.34 0.52,-0.54 2.65,-2.86 2.7,-7.02 0.55,-10.28 -1.13,-1.71 -2.85,-2.57 -4.68,-3.21l0.07 -1.12c1.01,-0.02 1.32,-0.7 0.4,-1.56l-0.23 -0.27c0.9,-1.13 1.33,-0.91 2.74,-0.4 0.62,0.23 0.49,0.35 0.76,0.51l1.63 0.96c0.3,0.09 0.48,0.23 0.76,0.51 0.29,0.29 -0.01,0.05 0.31,0.26 0.3,0.19 0.07,-0.12 0.39,0.37 -0.54,0.8 -0.75,0.2 -0.59,1 0.63,0.03 1.29,-0.16 1.56,-0.68l0.07 -0.17c0.17,-0.28 0.86,-0.56 0.42,-1.45 -0.1,-0.2 -0.13,-0.18 -0.28,-0.24 -0.17,-0.07 -0.19,0.02 -0.48,-0.21 0.13,-0.31 0.13,-0.26 0.21,-0.61 -1.39,-1.1 -0.91,-0.69 -1.26,0.17 -0.4,-0.07 -0.29,0.02 -0.59,-0.3 -0.16,-0.17 -0.22,-0.32 -0.35,-0.47 -0.41,-0.48 -0.12,0.1 -0.86,-0.64 -0.17,-0.17 -0.7,-0.19 -0.94,-0.23 -0.56,-0.1 -0.4,-0.09 -0.71,-0.44 -0.01,-0.01 -2.07,-0.46 -3.05,0.04 -0.4,0.2 -0.3,0.07 -0.53,0.38 -0.35,0.46 0.03,0.12 -0.51,0.44 -0.36,0.2 -0.23,0.14 -0.41,0.5 -0.13,0.28 -0.18,0.29 -0.37,0.56zm9.33 -2.19c0,0.36 0.47,1.65 0.63,2.04l0.62 0.01c0.25,-0.6 -0.09,-0.91 -0.27,-1.53 -0.16,-0.59 -0.42,-1.13 -0.98,-0.52zm3.76 4.23c0.43,0.1 0.8,0.16 1.16,0.23 0.64,0.12 0.68,0.24 1.07,-0.08l-0.02 -0.53c-0.42,-0.17 -1.75,-0.3 -2.19,-0.18l-0.02 0.56zm-1.46 1.34c0.07,0.36 0.35,0.84 0.57,1.22 0.32,0.55 0.36,1.03 0.85,0.79 0.32,-0.29 -0.49,-1.47 -0.82,-2.17 -0.22,0.04 -0.39,0.08 -0.6,0.16zm0.39 -3.48c0.49,0.34 0.72,-0.15 1.02,-0.47 0.3,-0.32 0.87,-0.74 0.86,-1.08l-0.62 -0.12c-0.4,0.37 -1.27,1.18 -1.26,1.67zm-3.04 4.99l0.08 0.15c0.42,-0.11 1.29,-1.58 1.02,-2.06 -0.55,0.01 -0.59,0.56 -1.02,1.31 -0.01,0.02 -0.16,0.31 -0.16,0.31 -0.08,0.49 0,0.18 0.08,0.29zm1.36 -0.11c0.91,0.11 0.84,-0.43 0.84,-1.15 -0.24,-0.26 -0.23,-0.33 -0.71,-0.38l-0.13 1.53zm0.61 -5.13l0.69 0.05c0.07,-0.8 0.24,-1.35 -0.65,-1.16l-0.04 1.11zm1.92 1.24c0.37,0.05 1.62,-0.27 1.12,-0.76 -0.26,-0.24 -0.55,0.05 -0.7,0.14 -0.41,0.25 -0.49,0.12 -0.42,0.62zm0.05 1.81c-0.23,0.36 -0.16,0.42 0.13,0.69 0.14,0.13 0.45,0.38 0.7,0.13 0.31,-0.33 -0.42,-1 -0.83,-0.82zm-1.55 -1.05c-0.36,0.4 -0.24,0 -0.42,0.47 0.62,0.2 0.98,-0.2 0.89,-0.91l-0.8 -0.02c0.09,0.24 0.03,0.13 0.13,0.24 0.05,0.06 0.12,0.11 0.2,0.22z"/>
 </g>
</svg>
