<?xml version="1.0" encoding="UTF-8"?>
<!DOCTYPE svg PUBLIC "-//W3C//DTD SVG 1.1//EN" "http://www.w3.org/Graphics/SVG/1.1/DTD/svg11.dtd">
<!-- Creator: CorelDRAW 2019 (64-Bit) -->
<svg xmlns="http://www.w3.org/2000/svg" xml:space="preserve" width="248px" height="193px" version="1.1" style="shape-rendering:geometricPrecision; text-rendering:geometricPrecision; image-rendering:optimizeQuality; fill-rule:evenodd; clip-rule:evenodd"
viewBox="0 0 32.79 25.56"
 xmlns:xlink="http://www.w3.org/1999/xlink"
 xmlns:xodm="http://www.corel.com/coreldraw/odm/2003">
 <defs>
  <style type="text/css">
   <![CDATA[
    .fil0 {fill:#2B2A29}
   ]]>
  </style>
 </defs>
 <g id="Layer_x0020_1">
  <metadata id="CorelCorpID_0Corel-Layer"/>
  <path id="Minér" class="fil0" d="M13.4 20.55c0.25,0.14 0.55,0.43 0.6,0.75 -0.39,-0.07 -0.5,-0.37 -0.6,-0.75zm-2.96 -2.88c-0.18,0.51 -0.04,0.28 -0.44,0.58l-1.77 1.36c-0.52,0.35 -2.53,1.41 -3.12,0.79 -0.79,-0.85 2.12,-3.26 2.77,-3.47 -0.21,0.22 -0.71,0.58 -0.96,0.96 -0.41,0.6 -0.27,1.19 0.62,1.04 0.87,-0.14 1.82,-1.02 2.9,-1.26zm-1.89 -3.82c0.22,0.26 0.36,0.3 0.58,0.57 -0.48,-0.07 -1.03,-0.7 -1.19,-1.2 0.56,0.26 0.25,0.22 0.61,0.63zm2.16 1.13c0.42,-0.43 1.72,-1.5 2.24,-1.8 0.3,-0.17 2.62,-1.47 2.89,-0.49 0.25,0.89 -3.49,3.66 -4.08,3.75 -0.26,-0.28 -0.93,-1.06 -1.05,-1.46zm1.76 2.31c0.93,-0.81 1.75,-1.35 2.66,-2.06 1.56,-1.22 3.87,-3.41 5.08,-4.3l4.22 -2.84c2.65,-1.38 4.49,-3.03 6.55,-5.01 0.55,-0.53 0.97,-0.14 1.52,-0.78 0.36,-0.41 0.4,-1.23 0.06,-1.73 -0.39,-0.58 -1.11,-0.75 -1.73,-0.36 -0.68,0.42 -0.25,0.71 -1.18,1.15 -3.72,1.79 -5.12,2.63 -8.35,5.5 -1.29,1.14 -2.29,2.13 -4.01,3.06 -1.75,0.94 -1.53,0.92 -2.88,1.73 -0.53,0.32 -0.94,0.57 -1.42,0.9 -0.66,0.44 -2.46,1.95 -2.72,1.91 -0.64,-0.08 -2.86,-3.14 -3.54,-3.65 -0.97,0.13 -3.62,2.83 -4.19,3.51 -0.43,0.52 -0.68,0.86 -1.1,1.35 -2.19,2.53 -1.43,7.42 -0.67,8 0.52,0.4 2.61,1.41 3.53,1.64 2.92,0.76 5.12,-0.31 7.71,-1.79 0.75,-0.42 2.47,-1.51 2.98,-2.01 -0.2,-0.87 -2.33,-3.03 -2.52,-4.22zm-0.86 -1.75c0.42,0.19 0.54,0.02 0.63,-0.42 -0.21,-0.17 -0.59,-0.38 -0.72,0.04 -0.16,0.5 0.09,0.38 0.09,0.38zm1.92 -1.52l0.62 -0.03 0.01 -0.55c-0.52,-0.03 -0.6,0.08 -0.63,0.58z"/>
 </g>
</svg>
