<?xml version="1.0" encoding="UTF-8"?>
<!DOCTYPE svg PUBLIC "-//W3C//DTD SVG 1.1//EN" "http://www.w3.org/Graphics/SVG/1.1/DTD/svg11.dtd">
<!-- Creator: CorelDRAW 2019 (64-Bit) -->
<svg xmlns="http://www.w3.org/2000/svg" xml:space="preserve" width="226px" height="230px" version="1.1" style="shape-rendering:geometricPrecision; text-rendering:geometricPrecision; image-rendering:optimizeQuality; fill-rule:evenodd; clip-rule:evenodd"
viewBox="0 0 52.18 53.18"
 xmlns:xlink="http://www.w3.org/1999/xlink"
 xmlns:xodm="http://www.corel.com/coreldraw/odm/2003">
 <defs>
  <style type="text/css">
   <![CDATA[
    .fil0 {fill:#2B2A29}
   ]]>
  </style>
 </defs>
 <g id="Layer_x0020_1">
  <metadata id="CorelCorpID_0Corel-Layer"/>
  <path id="Prapor" class="fil0" d="M1.12 51.82l-0.64 -0.37c0.33,-0.57 0.68,-0.9 1.09,-1.58 0.78,-1.28 0.56,-1.4 1.42,-1.65 -0.13,1.13 -1.19,2.88 -1.87,3.6zm5.15 -8.67c-0.47,-0.55 -0.07,-0.97 0.44,-1.88 0.39,-0.67 0.86,-1.68 1.53,-2.09 0.03,1.03 -0.38,1.41 -0.81,2.09 -0.48,0.76 -0.71,1.26 -1.16,1.88zm4.54 -8.21c0.15,-0.98 1.06,-2.45 1.67,-2.83 0,0.8 -0.2,1.08 -0.53,1.59 -0.6,0.93 -0.26,0.98 -1.14,1.24zm4.05 -6.4c-0.36,-0.71 0.7,-2.29 1.43,-2.62 -0.03,0.83 -0.42,1.47 -0.93,2.18 -0.4,0.56 -0.23,0.27 -0.5,0.44zm14 -3.99c0.92,0.15 1.19,0.33 1.49,1.17 -0.43,0.72 -0.62,0.73 -1.37,1.03l-0.12 -2.2zm8.42 -2.52c0.39,-1.08 1.85,-3.19 2.68,-4.13 0.72,-0.83 1.19,-1.08 2.62,-1.01 2.79,0.13 5.95,0.46 6.69,3.82 0.3,1.31 -0.44,3.26 -0.69,5.84 -0.51,-2.21 -0.34,-5.19 -3.35,-4.99 -0.71,0.04 -1.13,0.32 -1.83,0.48 -1.25,0.27 -4.91,0.18 -6.12,-0.01zm8.62 9.93c-0.6,-0.61 -0.66,-1.86 -1.76,-2.82 -2.4,-2.1 -9.63,-1.6 -12.51,-1.74 2.16,-5.35 -6.41,-4.84 -9.64,-5.78 -0.15,-1.62 0.99,-3.21 1.68,-4.15 1.05,-1.46 2.2,-1.67 4.48,-1.27 1.67,0.29 3.32,0.65 4.74,1.19 1.91,0.72 2.57,0.84 3.65,2.41 -0.3,0.99 -0.99,1.59 -1.55,2.59 -0.39,0.68 -1.36,2.17 -1.61,2.92 -0.66,1.96 1.23,0.01 1.56,-0.36 1.81,-2.04 3.95,-1.83 6.94,-1.8 3.56,0.03 4.86,7.24 4.02,8.81zm-19.98 -17.36c0.12,-1.1 2.32,-4.63 2.99,-5.6 2.76,-0.33 7.54,0.96 9.17,2.27 3.29,2.65 0.8,4.88 -0.78,7.51 -0.6,-0.24 -1.58,-1.03 -2.39,-1.48 -2.05,-1.14 -6.77,-2.36 -8.99,-2.7zm-3.68 -0.92c-0.03,-2.25 1.35,-3.97 2.75,-4.72 -0.29,1.04 -2.11,4.14 -2.75,4.72zm-4.21 9.14c0.05,-0.85 3.88,-6.95 4.6,-8.3l3.55 -6.14c1.27,-2.16 0.78,-1.48 1.45,-1.58 -0.34,1.24 -3.78,6.62 -4.69,8.29 -0.69,1.27 -4,7.41 -4.91,7.73zm9.74 -16.87c0.24,-0.7 0.17,-0.6 0.81,-0.79 -0.17,0.66 -0.06,0.77 -0.81,0.79zm1.12 -3.62c0.78,-0.46 1.44,-0.91 2.03,-1.18l-0.94 1.78c-0.37,0.61 -0.74,1.11 -1.14,1.43 -0.31,-0.72 -0.08,-1.23 0.05,-2.03zm-0.19 4.57c0.09,-0.36 0.16,-0.48 0.33,-0.91 0.22,-0.56 0.04,-0.39 0.4,-0.76 0.3,-0.33 1.24,-0.74 1.56,-1.05 0.68,-0.67 1.12,-2.95 1.26,-4.18 -1.38,0.32 -1.14,0.27 -2.05,1.03 -2.64,2.23 -0.94,0.24 -2.14,3.06 -1,2.37 -2.64,2.68 -4.25,3.82 -2.47,1.73 -3.35,4.55 -2.83,7.5 0.25,1.45 -3.95,7.13 -5.43,10.05 -1.27,2.51 -6.08,10.19 -7.88,13.21 -1.13,1.89 -7.42,12.23 -7.67,13.39l1.12 1.12c0.91,-0.44 1.93,-2.59 2.55,-3.58 2.98,-4.71 5.93,-10.21 8.93,-15.01l6.72 -10.96c0.78,-0.05 1.64,-0.1 2.42,-0.11 3.55,0 1.75,1.55 1.87,3.9 0.06,1.14 -0.67,2.4 -0.37,3.9 1.07,0.53 1.78,0.42 2.74,-0.15 0.47,-1.77 -0.49,-2.45 -0.11,-3.91 0.54,-2.08 -0.65,-0.78 -0.59,-3.51 0.83,0.01 1.7,0.16 2.28,0.41 0.36,1.55 0.73,5.06 0.2,6.41 -0.68,1.76 0.05,1.2 -0.29,2.51 -0.9,3.48 0.34,3.7 3.02,2.63 -0.01,-3.38 -1.52,-4.05 -1.39,-6.98 1.46,0.26 1.53,0.49 3.29,0.43 3.9,-0.14 5.7,-0.33 9.56,0.71 2.69,0.72 2.34,1.51 3.16,4.01 0.47,1.44 1.83,3.67 3.54,2.68 -0.65,-0.87 -0.74,-0.02 -1.42,-1.04 -0.23,-0.36 -0.58,-1.26 -0.64,-1.74 -0.18,-1.47 0.46,-2.81 0.33,-4.51 -0.11,-1.38 -1.21,-4.14 -2.07,-5.35 -0.48,-0.68 -0.75,-0.58 -0.79,-1.45 4.51,-0.71 2.77,1.95 3.7,4.25 0.49,1.21 0.97,1.31 2.17,1.84 1.2,0.53 0.95,1.88 2.25,1.19 -0.26,-1.09 -0.15,-0.06 -0.66,-0.87 -0.22,-0.35 -0.14,-0.6 -0.37,-1.08 -0.31,-0.68 -0.91,-0.9 -1.42,-1.6 -0.32,-1.97 1.01,-2.42 0.81,-4.71 -0.59,-6.86 -5.97,-6.19 -9.92,-6.36 0.91,-4.23 -0.81,-4.59 -3.7,-6.25 -2,-1.16 -5.64,-1.84 -8.22,-1.98z"/>
 </g>
</svg>
