<?xml version="1.0" encoding="UTF-8"?>
<!DOCTYPE svg PUBLIC "-//W3C//DTD SVG 1.1//EN" "http://www.w3.org/Graphics/SVG/1.1/DTD/svg11.dtd">
<!-- Creator: CorelDRAW 2019 (64-Bit) -->
<svg xmlns="http://www.w3.org/2000/svg" xml:space="preserve" width="206px" height="210px" version="1.1" style="shape-rendering:geometricPrecision; text-rendering:geometricPrecision; image-rendering:optimizeQuality; fill-rule:evenodd; clip-rule:evenodd"
viewBox="0 0 23.18 23.61"
 xmlns:xlink="http://www.w3.org/1999/xlink"
 xmlns:xodm="http://www.corel.com/coreldraw/odm/2003">
 <defs>
  <style type="text/css">
   <![CDATA[
    .fil0 {fill:#2B2A29}
   ]]>
  </style>
 </defs>
 <g id="Layer_x0020_1">
  <metadata id="CorelCorpID_0Corel-Layer"/>
  <path id="Pruzkumnik" class="fil0" d="M8.8 1.1c-0.72,-0.23 -0.65,-0.75 -1.21,-0.76 -0.36,0.39 -0.24,0.56 -0.22,1.24 -0.62,-0.14 -2.75,-2.06 -2.46,-0.69l0.6 1.44 -1.36 2.15c-0.37,0.32 -0.68,0.41 -0.91,0.9 -0.4,0.83 0.07,0.92 0,1.58l-0.81 0.19c0.08,0.91 0.63,0.94 1.3,1.3l-1.27 1.61c-0.66,0.43 -0.39,-0.3 -1.45,1.47 -0.84,1.4 0.4,0.08 -0.53,1.97 -0.36,0.73 -0.62,1.37 -0.4,2.32 0.25,1.06 0.65,1.24 0.9,1.93 0.38,1.02 0,1.47 1.41,1.39 1.19,-0.06 2.38,1.1 3.35,-1.04l0.39 -0.49 0.35 1.01c0.65,-0.07 1.13,-0.74 1.38,-0.92 0.16,-0.12 0.3,-0.15 0.48,-0.26 0.11,-0.86 -0.25,-0.89 -0.38,-1.67 0.48,-0.29 1.27,-0.74 2.04,-0.81 0.01,0.35 -0.1,0.6 0.04,0.9 0.77,0.16 1.1,0.04 1.67,-0.14 0.19,3.05 -0.32,4.84 1.6,7.37 0.26,0.34 0.28,0.48 0.81,0.52 1.16,-2.28 2.61,-1.27 5.79,-4.16 0.14,-0.11 0.24,-0.21 0.37,-0.32 0.31,-0.26 0.1,-0.22 0.46,-0.22 0.15,1.65 -0.74,2.5 -0.67,3.19 0.59,0.03 2.3,-1.18 2.72,-2.49 1.08,-3.36 -1.41,-5.73 -0.66,-9.48 0.27,-1.37 0.91,-3.04 1.03,-4.41 0.11,-1.23 -0.35,-1.19 -1,-1.69 -0.62,-0.47 -0.23,-0.47 -1.53,-1.18 -0.63,-0.34 -1,-0.66 -1.74,-0.99 -0.94,-0.42 -1.26,-1.39 -3.64,-1.82 -0.82,-0.15 -1.65,0.16 -2.46,0.27 -1.62,0.2 -2.54,-1.18 -3.99,0.79zm-4.41 15.89c0.25,0.51 -0.09,0.38 -0.66,1.25 -0.22,0.33 -0.21,0.13 -0.19,0.44 0.8,0.17 1.07,-0.04 1.38,-0.51 0.15,-0.22 0.77,-1.25 0.82,-1.37 -0.26,-0.23 -0.23,-0.27 -0.49,-0.48 -0.44,0.45 -0.09,0.39 -0.86,0.67zm2.65 -2.38c0.14,0.3 0.3,0.45 0.51,0.65 1.05,-0.5 0.18,-0.41 2.57,-1.27l-0.01 -1.61c-0.23,0 -2.95,2.08 -3.07,2.23zm3.18 -5.59c-1.72,0.61 -1.11,2.75 0.45,2.55 1.71,-0.21 0.74,-2.98 -0.45,-2.55zm-6.51 -1.26l0.56 0.12c0.29,-1.65 0.44,-1.73 1.39,-2.56 1.43,-1.25 0.62,-0.27 0.92,-1.13 0.19,-0.5 0.71,-0.66 0.95,-1.07l-0.18 -0.69c-0.54,0.08 -1.32,0.46 -1.55,0.76 -0.27,0.35 -0.36,1.04 -0.83,1.55 -0.34,0.38 -1.03,0.53 -0.96,1.44 0.03,0.42 0.25,0.56 0.21,0.89 -0.04,0.43 -0.29,0.37 -0.51,0.69zm7.12 0.65c0.35,-0.26 0.52,-0.53 0.68,-0.87 -1.97,-2 -0.74,-3.43 -1.35,-4.63l-0.2 0.24c-0.35,0.54 -0.14,0.68 -0.82,0.81l-0.36 -0.94c-0.13,-0.37 -0.19,-0.69 -0.5,-0.73 -0.23,0.18 -0.13,0.03 -0.16,0.38 -0.07,0.83 0.88,1.71 1.33,2.63 0.29,0.58 1.13,2.83 1.38,3.11zm-9.11 10.26c1.22,0.13 1.76,-1.12 2.34,-1.72 -0.02,-0.02 -0.05,-0.08 -0.06,-0.06 -0.08,0.17 -0.11,-0.11 -0.12,-0.13 -0.27,-0.34 -0.36,-0.95 0.07,-1.25l0.55 -0.26c-0.26,-0.67 -0.65,-1 -1.13,-1.38 -0.5,-0.4 -0.8,-0.78 -1.49,-0.98 -0.66,0.48 -1.28,1.58 -1.15,2.81 0.06,0.57 0.26,1.05 0.51,1.44 0.38,0.59 0.33,0.78 0.48,1.53zm-0.34 -6.48c0.28,0.32 0.45,0.29 0.83,0.47 2.1,0.98 2.49,2.45 3.22,3.34 0.39,0.48 0.86,0.84 1.08,1.54l1.29 -0.77c-0.18,-1.11 -1.11,-1.67 -1.47,-2.43 0.37,-0.78 2.8,-1.94 3.12,-2.72l-0.31 -0.32c-0.4,0.1 -1.37,0.93 -1.71,1.22 -0.28,0.24 -0.56,0.39 -0.84,0.63 -0.33,0.3 -0.44,0.51 -0.99,0.53 -0.14,-0.26 -0.14,-0.27 -0.14,-0.63 -0.38,0.22 -0.36,-0.2 -1.46,-1.05 -0.52,-0.41 -1.05,-0.95 -1.78,-1.14 -0.32,0.24 -0.78,0.86 -0.84,1.33zm1.59 -1.7l2.06 1.84c0.28,0.25 0.41,0.48 0.71,0.7 0.51,-0.18 2.93,-2.18 2.95,-2.2 0.18,-0.25 0.05,0.03 0.13,-0.34 0.02,-0.1 0.03,-0.26 0.06,-0.39 0.07,-0.31 0.12,-0.39 0.27,-0.62 0.33,-0.5 0.44,-0.42 0.13,-1.17 -0.45,-1.09 -1.24,-2.51 -2.07,-3.22 -0.44,0.16 -1.06,0.7 -1.33,1.01 -0.55,0.63 -0.57,0.59 -0.81,1.57 -0.27,1.17 -1.54,1.48 -2.1,2.82zm11.26 11.47c0.74,-0.39 0.16,-0.29 2.23,-1.2 1.22,-0.54 3.26,-2.15 3.75,-3.05 0.23,-0.41 0.06,-0.88 -0.06,-1.34 -0.06,-0.21 -0.11,-0.38 -0.21,-0.6l-0.38 -0.54c-0.83,0.74 -0.73,1.54 -1,2.72 -0.53,-0.18 -0.11,-0.15 -0.69,-1.01 -1.26,-1.9 0.22,-3.42 -0.01,-3.9l-1.33 2.24c-0.67,1.34 -0.34,1.69 -0.63,2.99 -0.61,0.08 -0.92,-0.58 -1.2,-0.88 -1.64,-1.8 -0.01,-4.64 -0.02,-5.43 -0.53,0.28 -0.6,0.79 -0.9,1.29 -1.73,-0.47 0.72,-3.2 -0.45,-4.56 -1.6,0.77 -0.28,1.45 -1.36,2.93 -0.31,0.41 -0.3,1.29 -0.27,1.94 0.03,0.84 0.44,0.43 0.72,1.45 0.37,1.38 -0.17,4.65 1.51,6.66l0.3 0.29zm-4.76 -19.96c0.58,0.17 1.47,-0.23 1.66,2.07 0.14,1.74 0.23,2.03 1.29,2.79 0.54,0.39 0.7,0.32 1.14,0.79 0.35,0.37 0.63,0.75 0.76,1.29 0.32,1.23 -0.62,2.31 -0.61,3.33l0.97 -1.11c0.31,-0.38 0.01,-0.25 0.46,-0.34 0.89,0.7 0.03,2 -0.03,2.13 -0.39,0.88 -0.85,3.24 0.18,4.05 0.48,-2.52 1.33,-2.76 1.88,-3.93 0.36,-0.78 0.15,-0.91 0.3,-1.62 0.91,-0.04 1.25,1.21 1.19,2.21 -0.06,0.94 -0.83,1.89 -0.35,2.9 0.5,-0.42 0.51,-1.58 1.48,-2.13 0.8,0.38 1.01,1.79 1.22,2.75 0.31,1.42 0.23,2.07 0.05,3.47 0.45,-0.5 0.63,-0.67 0.89,-1.44 0.83,-2.4 -0.35,-3.36 -0.89,-5.67 -0.36,-1.51 -0.13,-2.96 0.17,-4.33 0.33,-1.5 0.83,-2.57 0.88,-4.12 -0.92,-0.4 -1.91,-1.44 -2.66,-1.97 -0.59,-0.42 -1.13,-0.33 -1.72,-0.67 -0.59,-0.34 -0.5,-0.69 -1.29,-1.09 -2.02,-1.02 -2.34,0 -4.01,-0.07 -0.78,-0.04 -3.04,-1.51 -2.96,0.71zm-4.39 7.78c0.5,0.01 0.43,-0.12 0.77,-0.37 1.8,0.46 1.39,-0.59 1.53,-1.18 0.12,-0.47 0.26,-0.07 0.42,-0.7 -1.73,-0.05 -2.74,1.26 -2.72,2.25zm-3.54 6.51c0.71,-0.3 -0.59,0.36 0.28,-0.2 0.16,-0.11 0.03,-0.1 0.31,-0.17 0.48,1.16 -0.22,1.27 -0.04,1.84 0.72,-0.31 1.18,-1.72 0.63,-2.56 -0.82,-1.26 -2.26,0.09 -1.18,1.09z"/>
 </g>
</svg>
