<?xml version="1.0" encoding="UTF-8"?>
<!DOCTYPE svg PUBLIC "-//W3C//DTD SVG 1.1//EN" "http://www.w3.org/Graphics/SVG/1.1/DTD/svg11.dtd">
<!-- Creator: CorelDRAW 2019 (64-Bit) -->
<svg xmlns="http://www.w3.org/2000/svg" xml:space="preserve" width="256px" height="204px" version="1.1" style="shape-rendering:geometricPrecision; text-rendering:geometricPrecision; image-rendering:optimizeQuality; fill-rule:evenodd; clip-rule:evenodd"
viewBox="0 0 34.87 27.79"
 xmlns:xlink="http://www.w3.org/1999/xlink"
 xmlns:xodm="http://www.corel.com/coreldraw/odm/2003">
 <defs>
  <style type="text/css">
   <![CDATA[
    .fil0 {fill:#2B2A29}
   ]]>
  </style>
 </defs>
 <g id="Layer_x0020_1">
  <metadata id="CorelCorpID_0Corel-Layer"/>
  <path id="Špión" class="fil0" d="M1.1 26.99c0.36,-0.38 0.8,-0.71 1.11,-0.96 2.6,-2.1 6.01,-4.54 8.88,-6.77l4.99 -3.81c0.94,-0.72 1.7,-1.27 2.54,-1.93 0.44,-0.34 2.04,-1.65 2.57,-1.84 0.37,0.25 1.02,1.13 1.08,1.91 -0.51,0.61 -1.7,1.35 -2.39,1.9l-4.94 3.71c-5.57,4.3 -6.29,5.31 -13.07,7.74 -0.97,0.35 -0.7,0.08 -0.77,0.05zm20.7 -15.92c1.03,-1.02 2.09,0.41 2.5,1.12 0.1,0.34 -0.35,2.06 -0.52,2.58 -0.18,0.54 -0.14,0.44 -0.52,0.65 -0.01,-3.05 0.29,-1.64 -1.13,-3.76 -0.09,-0.13 -0.33,-0.58 -0.33,-0.59zm-0.37 -0.47c-0.38,-0.19 -1.1,-1.16 -1.28,-1.55 0.97,0.07 1.7,0.6 1.28,1.55zm4.67 -2.72c-0.34,-0.02 -0.21,-0.06 -0.38,-0.16 0.15,-0.57 0.1,-0.47 0.78,-0.4l-0.06 0.48c-0.31,0.11 0.23,0.1 -0.34,0.08zm2.44 -2.33c-0.07,-0.73 0.68,-0.86 0.55,0.07l-0.55 -0.07zm-4.31 5.8c-0.34,-0.96 -0.35,-1.53 0.21,-2.33 0.09,-0.13 0.61,-0.61 0.82,-0.73 0.37,-0.2 0.61,0.04 1.26,0 0.36,-0.59 0.29,-1.09 0.55,-1.4 0.05,-0.06 1.11,-0.77 1.24,-0.86l0.95 0.02c0.24,-0.49 0.24,-0.96 0.59,-1.26 0.35,-0.31 0.8,-0.51 1.38,-0.52 0.17,0.25 0.27,0.39 0.31,0.8 -0.65,1.01 -2.34,2.42 -3.37,3.35 -0.75,0.67 -2.89,2.79 -3.94,2.93zm7.74 -7.12c0.13,-0.75 0.99,-1.53 1.93,-1.54 0.27,0.47 0.29,0.66 0.33,1.31 -0.59,0.23 -1.65,0.75 -2.26,0.23zm-0.57 -0.73c-0.33,-0.54 -0.21,-0.98 0.06,-1.55 0.55,-1.17 1.05,-1.24 1.78,-0.23l-1.36 1.47c-0.33,0.37 -0.08,0.22 -0.48,0.31zm-1.91 -1.15c-0.7,0.4 -1.51,0.74 -2.17,1.17l-3.92 2.93c-2.36,2.2 -1.14,1.8 -5.5,1.34 -0.2,-0.02 -0.41,-0.07 -0.6,-0.04 -0.59,0.1 -0.92,0.58 0.22,1.41 0.21,0.16 0.3,0.21 0.61,0.37l0.75 0.35c-0.13,0.33 -0.06,0.27 -0.26,0.47 -0.01,0.01 -0.22,0.15 -0.31,0.21 -0.25,0.18 -0.34,0.27 -0.63,0.5l-3.91 2.92c-3.61,2.61 -7.13,4.86 -10.23,8.2 -0.62,0.67 -3.48,4.47 -3.54,5.6 1.45,0.08 5.49,-1.57 6.69,-2.18 3.93,-1.98 14.83,-11.02 15.84,-11.14 0.01,1.02 -0.1,1.35 0.52,1.85 1.15,0.4 1.66,-2.26 1.79,-3.01 0.28,-1.64 0.5,-1.46 2.15,-2.85 0.98,-0.83 1.72,-1.34 2.71,-2.31 0.81,-0.8 1.65,-1.87 2.36,-2.63 1.16,0.04 2.19,-0.33 2.81,-0.84 -0.41,-3.91 -5.06,-6.98 -5.38,-2.32z"/>
 </g>
</svg>
