<?xml version="1.0" encoding="UTF-8"?>
<!DOCTYPE svg PUBLIC "-//W3C//DTD SVG 1.1//EN" "http://www.w3.org/Graphics/SVG/1.1/DTD/svg11.dtd">
<!-- Creator: CorelDRAW 2019 (64-Bit) -->
<svg xmlns="http://www.w3.org/2000/svg" xml:space="preserve" width="250px" height="205px" version="1.1" style="shape-rendering:geometricPrecision; text-rendering:geometricPrecision; image-rendering:optimizeQuality; fill-rule:evenodd; clip-rule:evenodd"
viewBox="0 0 33.29 27.28"
 xmlns:xlink="http://www.w3.org/1999/xlink"
 xmlns:xodm="http://www.corel.com/coreldraw/odm/2003">
 <defs>
  <style type="text/css">
   <![CDATA[
    .fil0 {fill:#2B2A29}
   ]]>
  </style>
 </defs>
 <g id="Layer_x0020_1">
  <metadata id="CorelCorpID_0Corel-Layer"/>
  <path id="Střelec" class="fil0" d="M11.63 16.63l-0.04 1.14c-0.23,0.56 -0.03,0.11 -0.18,0.23 -0.14,0.12 -0.92,0.46 -1.16,0.52l0.14 -0.59c0.38,-0.14 0.05,-0.06 0.72,0.03 -0.13,-0.63 -0.2,-1.33 0.52,-1.33zm12.55 -9.75c0.69,-0.17 6.02,-4.3 6.94,-5.04 0.61,-0.49 1.87,-1.26 2.17,-1.84 -0.75,0.17 -3.57,2.31 -4.49,2.94 -0.66,0.46 -3.83,2.8 -4.3,2.96 0.35,-0.81 1.13,-0.54 0.86,-1.28 -0.31,-0.17 0.36,-0.11 -0.32,-0.13 -0.57,-0.01 -0.04,0.33 -1.42,0.52 -0.36,0.85 -1.21,1.2 -1.79,1.63l-14.04 9.87c0.01,1.32 0.59,0.94 -0.25,1.95 -0.61,0.04 -0.87,-0.22 -1.33,0.07l-6.2 4.74c-0.11,0.28 1.26,3.59 1.28,3.64 0.4,0.73 1.2,0.22 1.64,-0.17 1.28,-1.14 2.45,-2.26 3.56,-3.69l2.14 -2.58c2.09,-0.09 0.96,-0.22 1.66,-1.28 0.38,-0.58 1.24,-0.81 1.67,-1.2 0.21,-1.1 -0.18,-1.8 0.6,-2.43 0.7,-0.56 1.04,-0.85 1.67,-1.34 1,-0.78 2.03,-1.64 3.21,-2.66l4.2 -3.34c0.38,-0.36 0.72,-1.74 2.34,-2.07l0.2 0.73z"/>
 </g>
</svg>
